<svg width="32" height="32" viewBox="0 0 32 32" fill="none" xmlns="http://www.w3.org/2000/svg">
<path d="M15.0001 8C13.0001 10 8.60009 13.6 7.00009 12C3.50007 8.49999 11.6668 8.66667 15.0001 8ZM15.0001 8C17.8334 8 27.0001 7 23.5001 10.5C21.0001 13 17.8334 9.66667 15.0001 8ZM12.8285 25.8284L7.50008 20.5C6.67165 19.6716 6.67165 18.3284 7.50008 17.5C8.32851 16.6716 9.67165 16.6716 10.5001 17.5L12.3301 19.33C12.5774 19.5773 13.0001 19.4022 13.0001 19.0525V7C13.0001 5.89543 13.8955 5 15.0001 5C16.1046 5 17.0001 5.89543 17.0001 7V14.9971C17.0001 15.3297 17.4188 15.4766 17.6266 15.2169C18.3307 14.3367 19.6694 14.3367 20.3736 15.2169L20.771 15.7137C20.9046 15.8807 21.1368 15.9317 21.3281 15.836L21.9945 15.5028C22.6275 15.1863 23.3726 15.1863 24.0057 15.5028C24.6151 15.8075 25.0001 16.4304 25.0001 17.1118V23C25.0001 25.2091 23.2092 27 21.0001 27H15.6569C14.5961 27 13.5787 26.5786 12.8285 25.8284Z" stroke="#757575" stroke-width="2" stroke-linecap="round"/>
</svg>
