<svg width="32" height="32" viewBox="0 0 32 32" fill="none" xmlns="http://www.w3.org/2000/svg">
<path d="M21.5 4.5C21.5 5.66667 19.7649 6 18.5 6C13.2831 6 7.79453 9.4791 7.07855 14.0038C6.99223 14.5493 6.55229 15 6 15H3M4 20.5C4.78546 20.7618 6.12618 21.7846 7.44065 22.0175C8.00968 22.1183 8.59264 22.4812 8.73867 23.0403C9.04152 24.1998 9.28732 25.0317 8.5 27M17.2247 25.2929C16.2247 25.2929 12.2247 23.0929 12.2247 16.2929C12.2247 10.7929 15.7247 9.29287 20.7247 9.29288C23.7247 9.29288 25.7247 10.7929 25.7247 14.2929C25.7247 17.7929 22.2247 17 20.7247 18.5C19.2247 20 20.7247 25.2929 17.2247 25.2929ZM29 16C29 23.1797 23.1797 29 16 29C8.8203 29 3 23.1797 3 16C3 8.8203 8.8203 3 16 3C23.1797 3 29 8.8203 29 16Z" stroke="#757575" stroke-width="2"/>
</svg>
