<svg width="120" height="117" viewBox="0 0 120 117" fill="none" xmlns="http://www.w3.org/2000/svg">
<path d="M70.364 90.2719C60.8186 86.7265 51.0004 86.1811 42.0004 88.6356C35.7277 90.272 29.7277 93.5447 24.2732 97.6356L20.4549 100.908L19.364 101.999L21.8185 104.181C22.0913 104.181 22.0913 104.454 22.364 104.727C22.9095 105.272 23.455 105.545 24.2732 106.09L25.9095 107.181L27.5458 105.817C27.8186 105.545 28.364 104.999 28.9095 104.727C33.8186 100.636 39.2731 97.9084 45.0004 96.5447C52.364 94.6356 60.2731 94.9084 68.1822 97.9084C74.7276 100.363 88.0913 103.363 104.182 96.5447L104.728 96.272L105.546 95.4538C105.546 95.1811 105.819 95.1811 106.091 94.9083C107.455 93.272 108.819 91.6356 109.91 89.7265L115.364 81.272L106.637 86.181C93.8186 93.2719 82.0913 94.6356 70.364 90.2719Z" fill="#163300"/>
<path d="M32.9999 60.8187C40.3635 58.9096 48.2726 59.1823 56.1817 62.1823C64.909 65.4551 87.2727 70.0914 112.364 47.4551L116.454 43.3642L116.727 43.0914L117.818 42.0005L117.273 40.6369C117 39.546 116.454 38.1824 115.909 36.8187L114.545 33.0005L111.818 35.7278C111.545 36.2732 111 36.5459 110.454 37.0914C98.4544 49.3641 79.909 61.9096 58.6363 54.2733C49.0908 50.7278 39.2726 50.1823 30.2726 52.6369C21.5454 55.0914 13.909 59.7278 6.81807 66.2732V66.0005L2.72716 70.3642C2.72716 70.6369 2.45448 70.6369 2.18176 70.9096L1.36353 71.7278L1.63627 72.8187C1.909 74.1823 2.45443 75.546 2.72716 76.9096L4.36354 81.2732L7.09081 77.7278C7.36354 77.1824 7.90898 76.9096 8.18171 76.3642C13.909 71.1824 21.8181 63.8187 32.9999 60.8187Z" fill="#163300"/>
<path d="M6.54552 55.9093C12.8182 49.3638 19.9091 45.2729 27.5455 43.0911C34.9091 41.182 42.8182 41.4547 50.7273 44.4547C75.2727 53.4547 96.5455 38.7274 105.818 30.8183L109.364 27.2729L110.727 26.182L109.636 24.5457C108.818 23.7275 108.273 22.6365 107.455 21.5456L105.818 19.3638L103.909 21.2729C103.636 21.5456 103.091 22.0911 102.818 22.3638C91.3637 33.2729 73.6364 44.4547 53.4546 36.8184C43.9091 33.2729 34.0909 32.7275 25.0909 35.182C19.3637 36.8184 13.9091 39.5456 8.45456 43.0911L2.72727 47.7275C2.18182 48.2729 1.90909 48.5457 1.36364 49.0911L0.818232 49.6365V50.4547C0.545504 52.3638 0.545471 54.2729 0.272744 55.9093L0 62.7275L4.6364 57.8183C5.18185 57.2729 5.72734 56.4547 6.54552 55.9093Z" fill="#163300"/>
<path d="M78.2724 108.818L77.7269 110.455L78.2724 108.818C77.4542 108.545 76.9088 108.273 76.0906 108C66.5451 104.454 56.7269 103.909 47.7269 106.364C45.8178 106.909 43.9088 107.455 41.9997 108.273L35.4542 111.273L33.8179 112.091L39.2724 114C40.9088 114.545 42.5451 115.091 44.1815 115.636L44.9996 115.909L45.8179 115.636C46.636 115.364 47.4542 114.818 48.2724 114.818C48.8178 114.818 49.3633 114.545 49.9088 114.273C56.4542 112.636 63.5451 112.636 71.1815 115.091C71.9996 115.364 72.5451 115.636 73.3633 115.909L74.727 116.455L75.5451 116.182C77.4542 115.636 79.636 115.091 81.2724 114.273L88.9087 111.545L80.9997 109.636C80.1815 109.364 79.0906 109.091 78.2724 108.818Z" fill="#163300"/>
<path d="M120 52.3643L115.909 56.4552C115.364 57.0006 114.818 57.5461 114.273 58.0915C103.091 68.7279 85.0912 80.1824 64.9093 72.5461C55.3639 69.0006 45.5457 68.4552 36.5457 70.9098C28.0912 73.3643 20.4547 77.7279 13.6366 84.2734L10.0911 88.0915L9.00024 89.4552L10.0911 91.0916C10.9093 92.1825 11.4548 93.0007 12.0003 94.0916L13.6366 96.5461L15.5457 94.0916C15.8184 93.8189 16.3638 93.2733 16.6366 93.0006C23.182 85.9097 30.2729 81.5461 38.4548 79.3642C45.8184 77.4552 53.7275 77.7279 61.6366 80.7279C68.4548 83.1824 75.5457 84.0007 82.6366 83.1825C95.1821 81.8189 107.728 74.7279 117 66.8189C117.546 66.2734 118.091 66.0007 118.637 65.4552L119.455 64.637V63.8188C119.455 62.1825 119.728 60.2734 119.728 58.637L120 52.3643Z" fill="#163300"/>
<path d="M16.3635 27.2723L15.5453 25.636L16.3635 27.2723C17.9998 26.4542 19.909 25.9087 21.5454 25.3632C28.909 23.4541 36.8181 23.7269 44.7272 26.7269C49.909 28.6359 55.0908 29.4541 60.8181 29.4541C72.2726 29.4541 83.7271 25.3632 94.3635 17.4541L98.4544 14.1814L99.818 13.0905L97.3635 11.1814C96.5453 10.3632 95.4544 9.54504 94.3635 8.99958L92.7271 7.90869L91.3635 8.99958C90.818 9.27231 90.5453 9.81775 89.9998 10.0905C75.5453 20.9996 61.0908 23.9996 47.4544 18.8178C37.6363 15.2723 27.818 14.4541 17.9999 17.4541C17.1817 17.7269 16.3635 17.9996 15.2726 18.2723L14.7272 18.545L13.9089 19.3632C13.9089 19.6359 13.6363 19.6359 13.3635 19.9087C12.2726 21.545 10.9089 22.9087 9.81803 24.5451L4.63623 32.4541L13.0908 28.0905C14.4544 28.0905 15.5453 27.5451 16.3635 27.2723Z" fill="#163300"/>
<path d="M38.7273 8.72722L39.5455 8.99997C43.0909 10.3636 48.5455 11.7272 55.3637 11.7272C62.4546 11.7272 69.2728 10.0909 76.091 7.36359L84.5455 3.27268L78.8182 1.36364C77.1819 0.818182 75.5455 0.272727 73.6364 0H72.8182L72.0001 0.272661C71.1819 0.545388 70.3636 1.09091 69.5455 1.36364C61.3636 4.36364 53.1818 4.90909 45.2727 2.72727C44.4546 2.45455 43.6364 2.18177 42.8182 1.90904L42.0001 1.6363L41.1818 1.90904C39.5455 2.4545 37.9091 2.99998 36.2728 3.81817L30 6.54544L36.5455 8.45448C37.091 8.18175 37.9091 8.4545 38.7273 8.72722Z" fill="#163300"/>
</svg>
