<svg width="226" height="220" viewBox="0 0 226 220" fill="none" xmlns="http://www.w3.org/2000/svg">
<path d="M132.519 170.017C114.541 163.339 96.0506 162.312 79.1006 166.935C67.287 170.017 55.987 176.181 45.7143 183.885L38.5233 190.049L36.4688 192.104L41.0914 196.213C41.6051 196.213 41.6051 196.727 42.1188 197.24C43.146 198.268 44.1734 198.781 45.7143 199.809L48.796 201.863L51.8778 199.295C52.3915 198.781 53.4187 197.754 54.446 197.24C63.6914 189.536 73.9641 184.399 84.7505 181.831C98.6187 178.235 113.514 178.749 128.41 184.399C140.737 189.022 165.905 194.672 196.21 181.831L197.237 181.317L198.778 179.776C198.778 179.263 199.291 179.263 199.805 178.749C202.373 175.667 204.941 172.585 206.996 168.99L217.269 153.066L200.832 162.312C176.691 175.667 154.605 178.235 132.519 170.017Z" fill="white"/>
<path d="M62.1499 114.546C76.0181 110.951 90.9135 111.464 105.809 117.114C122.245 123.278 164.363 132.01 211.618 89.3774L219.323 81.6726L219.836 81.1589L221.891 79.1044L220.863 76.5361C220.35 74.4815 219.322 71.9133 218.295 69.345L215.727 62.1538L210.591 67.2903C210.077 68.3176 209.05 68.8313 208.022 69.8586C185.423 92.9728 150.495 116.601 110.432 102.219C92.4544 95.5412 73.9635 94.5138 57.0136 99.1367C40.5772 103.76 26.1954 112.492 12.8408 124.819V124.306L5.13629 132.524C5.13629 133.038 4.62275 133.038 4.10912 133.551L2.56812 135.092L3.08178 137.147C3.59542 139.715 4.62266 142.283 5.13629 144.852L8.21814 153.07L13.3545 146.393C13.8681 145.365 14.8954 144.852 15.409 143.824C26.1954 134.065 41.0908 120.196 62.1499 114.546Z" fill="white"/>
<path d="M12.3274 105.299C24.141 92.9714 37.4955 85.2666 51.8773 81.1574C65.7454 77.5618 80.6409 78.0755 95.5363 83.7256C141.764 100.676 181.827 72.939 199.291 58.0431L205.968 51.3657L208.536 49.311L206.482 46.2292C204.941 44.6883 203.914 42.6336 202.373 40.579L199.291 36.4697L195.695 40.0653C195.182 40.579 194.154 41.6063 193.641 42.1199C172.068 62.6659 138.682 83.7257 100.673 69.3435C82.6954 62.666 64.2046 61.6387 47.2546 66.2615C36.4682 69.3434 26.1955 74.4799 15.9227 81.1574L5.13636 89.8895C4.10909 90.9168 3.59545 91.4304 2.56818 92.4577L1.541 93.4849V95.026C1.02737 98.6215 1.0273 102.217 0.513667 105.299L0 118.14L8.73187 108.894C9.75915 107.867 10.7865 106.326 12.3274 105.299Z" fill="white"/>
<path d="M147.413 204.946L146.385 208.028L147.413 204.946C145.872 204.433 144.845 203.919 143.304 203.405C125.326 196.728 106.835 195.701 89.8855 200.324C86.29 201.351 82.6947 202.378 79.0993 203.919L66.7719 209.569L63.6902 211.11L73.9629 214.706C77.0447 215.733 80.1265 216.76 83.2083 217.788L84.7491 218.301L86.2901 217.788C87.831 217.274 89.3719 216.247 90.9128 216.247C91.9401 216.247 92.9674 215.733 93.9947 215.219C106.322 212.138 119.676 212.137 134.058 216.76C135.599 217.274 136.626 217.788 138.167 218.301L140.736 219.329L142.276 218.815C145.872 217.788 149.981 216.76 153.063 215.219L167.445 210.083L152.549 206.487C151.008 205.974 148.954 205.46 147.413 204.946Z" fill="white"/>
<path d="M226 98.6226L218.295 106.327C217.268 107.355 216.241 108.382 215.214 109.409C194.155 129.442 160.255 151.015 122.246 136.633C104.268 129.955 85.7774 128.928 68.8275 133.551C52.9047 138.174 38.5228 146.392 25.6819 158.72L19.0047 165.911L16.9502 168.479L19.0047 171.561C20.5456 173.616 21.573 175.157 22.6002 177.211L25.6819 181.834L29.2774 177.211C29.7911 176.697 30.8183 175.67 31.3319 175.156C43.6592 161.801 57.0137 153.583 72.4228 149.474C86.291 145.878 101.186 146.392 116.082 152.042C128.923 156.665 142.277 158.206 155.632 156.665C179.259 154.097 202.886 140.742 220.35 125.846C221.377 124.819 222.404 124.305 223.432 123.278L224.973 121.737V120.196C224.973 117.114 225.486 113.519 225.486 110.437L226 98.6226Z" fill="white"/>
<path d="M30.8177 51.3652L29.2769 48.2833L30.8177 51.3652C33.8995 49.8242 37.4951 48.7969 40.5769 47.7696C54.4451 44.174 69.3405 44.6877 84.236 50.3378C93.9951 53.9334 103.754 55.4743 114.54 55.4743C136.113 55.4743 157.686 47.7696 177.718 32.8738L185.422 26.7099L187.99 24.6553L183.368 21.0597C181.827 19.5188 179.772 17.9779 177.718 16.9506L174.636 14.896L172.068 16.9506C171.04 17.4642 170.527 18.4915 169.499 19.0051C142.277 39.5511 115.054 45.2014 89.3723 35.442C70.8815 28.7645 52.3905 27.2236 33.8996 32.8738C32.3587 33.3874 30.8178 33.901 28.7632 34.4146L27.736 34.9283L26.195 36.4692C26.195 36.9829 25.6815 36.9829 25.1679 37.4966C23.1133 40.5785 20.545 43.1468 18.4905 46.2287L8.73145 61.1245L24.6542 52.9061C27.2224 52.9061 29.2768 51.8788 30.8177 51.3652Z" fill="white"/>
<path d="M72.9364 16.4367L74.4773 16.9504C81.1545 19.5186 91.4273 22.0869 104.268 22.0869C117.623 22.0869 130.464 19.005 143.305 13.8685L159.227 6.16371L148.441 2.56825C145.359 1.54095 142.277 0.51365 138.682 0H137.141L135.6 0.513525C134.059 1.02717 132.518 2.0546 130.977 2.56825C115.568 8.2184 100.159 9.2457 85.2636 5.1365C83.7227 4.62285 82.1819 4.10911 80.641 3.59546L79.1001 3.08178L77.5591 3.59546C74.4773 4.62276 71.3955 5.65012 68.3137 7.19107L56.5 12.3276L68.8274 15.923C69.8547 15.4094 71.3955 15.9231 72.9364 16.4367Z" fill="white"/>
</svg>
