<svg width="32" height="32" viewBox="0 0 32 32" fill="none" xmlns="http://www.w3.org/2000/svg">
<path d="M19.1893 3.75746C19.078 3.3123 18.6781 3 18.2192 3H13.7807C13.3219 3 12.9219 3.3123 12.8106 3.75746L12.1498 6.40065C12.0841 6.66336 11.9147 6.88819 11.6803 7.02376L10.3889 7.77063C10.1541 7.90646 9.87411 7.94104 9.61326 7.86642L6.99233 7.11667C6.55116 6.99047 6.08071 7.18072 5.85127 7.57811L3.63205 11.4219C3.40262 11.8193 3.47308 12.3219 3.80296 12.6408L5.76273 14.5357C5.95759 14.7242 6.06762 14.9836 6.06762 15.2546L6.06762 16.7454C6.06762 17.0164 5.95759 17.2759 5.76273 17.4643L3.80296 19.3592C3.47308 19.6782 3.40262 20.1807 3.63205 20.5781L5.85127 24.4219C6.08071 24.8193 6.55116 25.0096 6.99233 24.8834L9.60154 24.137C9.86927 24.0604 10.1568 24.0989 10.395 24.2433L11.3584 24.8273C11.5612 24.9502 11.7137 25.1413 11.7887 25.3662L12.772 28.3162C12.9081 28.7246 13.2903 29 13.7207 29H18.2792C18.7096 29 19.0918 28.7246 19.2279 28.3162L20.2102 25.3693C20.2858 25.1425 20.4402 24.9502 20.6454 24.8274L21.6273 24.2398C21.865 24.0976 22.1511 24.0603 22.4173 24.1369L25.0068 24.8819C25.4483 25.0089 25.9196 24.8187 26.1493 24.4209L28.3707 20.5733C28.5989 20.1781 28.5306 19.6787 28.2048 19.3592L26.2715 17.4635C26.0796 17.2755 25.9716 17.0181 25.9716 16.7495V15.2505C25.9716 14.9819 26.0796 14.7246 26.2715 14.5365L28.2048 12.6408C28.5306 12.3214 28.5989 11.8219 28.3707 11.4268L26.1493 7.57916C25.9196 7.18128 25.4483 6.99112 25.0068 7.11814L22.4062 7.8663C22.1465 7.94102 21.8676 7.90744 21.6331 7.7732L20.3229 7.02343C20.0865 6.88814 19.9155 6.66228 19.8495 6.39804L19.1893 3.75746Z" stroke="#2E4454" stroke-width="2" stroke-linejoin="round"/>
<path d="M21 16C21 18.7614 18.7614 21 16 21C13.2385 21 11 18.7614 11 16C11 13.2386 13.2385 11 16 11C18.7614 11 21 13.2386 21 16Z" stroke="#2E4454" stroke-width="2" stroke-linejoin="round"/>
</svg>
